<?xml version="1.0" standalone="no"?>
<!DOCTYPE svg PUBLIC "-//W3C//DTD SVG 20010904//EN"
 "http://www.w3.org/TR/2001/REC-SVG-20010904/DTD/svg10.dtd">
<svg version="1.0" xmlns="http://www.w3.org/2000/svg"
 width="44.000000pt" height="31.105556pt" viewBox="0 0 44.000000 31.105556"
 preserveAspectRatio="xMidYMid meet">
<metadata>
Created by potrace 1.16, written by Peter Selinger 2001-2019
</metadata>
<g transform="translate(0.000000,31.105556) scale(0.006111,-0.006111)"
fill="#466fd8" stroke="none">
<path d="M1910 5076 c-186 -42 -326 -120 -447 -250 -110 -117 -188 -279 -213
-441 -7 -48 -10 -630 -8 -1885 3 -1721 4 -1818 22 -1875 93 -308 298 -512 601
-597 l80 -23 1780 -3 c1252 -2 1805 0 1865 8 351 46 616 278 712 625 l22 80
-3 1825 c-3 1978 0 1882 -59 2032 -75 195 -253 374 -450 454 -159 64 12 59
-2012 61 -1418 1 -1847 -2 -1890 -11z m3138 -1923 l-3 -1318 -845 -211 c-465
-115 -857 -213 -872 -217 l-28 -7 0 -476 0 -476 -389 383 -390 384 2 344 2
344 880 222 880 221 -4 615 c-2 338 -5 616 -7 618 -1 2 -224 -52 -493 -119
l-491 -122 -2 -517 -3 -516 -360 -92 c-198 -50 -370 -92 -382 -92 l-23 -1 0
864 0 864 1243 310 c683 171 1252 310 1265 311 l22 1 -2 -1317z"/>
</g>
</svg>
